#!OML:ASF I:\Actors\actors\Patient Classification 1\Patient 1\Session 1\Subject1.ASF
:FULLY-SPECIFIED
:DEGREES
495
root -0.667418 17.8777 7.51334 37.8985 14.8588 -13.6059
lowerback 26.5432 2.99241 4.78585
upperback 12.5672 4.70822 -2.48287
thorax 0.00514742 2.6269 -6.62902
lowerneck -14.0833 -2.29423 -0.0624115
upperneck 0.845285 -3.2965 4.49748
head 2.83198 -1.46774 1.26158
rclavicle 1.86858e-014 2.44008e-014
rhumerus 65.5365 16.4121 -21.5326
rradius 40.5417
rwrist -27.2166
rhand 8.02557 -32.2494
rfingers 7.12502
rthumb 33.2513 -59.1963
lclavicle 1.86858e-014 2.44008e-014
lhumerus 59.1641 -18.2064 -1.27547
lradius 50.6438
lwrist 80.4806
lhand -36.4431 -14.1402
lfingers 7.12502
lthumb -9.53739 15.6239
rfemur -41.3276 27.2152 14.4443
rtibia -0.93806
rfoot -10.5732 -37.0729
rtoes 17.9747
lfemur -52.7286 -39.7803 44.4005
ltibia -2.68824
lfoot -28.2224 61.4053
ltoes 20.9737
496
root -0.685743 17.8863 7.53567 37.1681 14.4172 -13.8326
lowerback 27.0571 2.95048 4.53658
upperback 12.4141 4.59781 -2.81692
thorax -0.412574 2.55481 -6.87748
lowerneck -14.1526 -2.22038 0.109818
upperneck 1.3669 -3.26275 4.74276
head 3.02795 -1.42832 1.31525
rclavicle 5.12864e-014 -4.18442e-014
rhumerus 65.8532 17.4187 -21.3672
rradius 40.9232
rwrist -27.8171
rhand 7.72155 -32.1994
rfingers 7.12502
rthumb 32.9622 -59.2076
lclavicle 5.12864e-014 -4.18442e-014
lhumerus 58.4625 -18.7581 -1.82293
lradius 51.0121
lwrist 80.6367
lhand -35.7981 -14.0938
lfingers 7.12502
lthumb -8.91501 15.6979
rfemur -40.3358 27.9583 14.9192
rtibia -1.18056
rfoot -10.6468 -37.2057
rtoes 18.1132
lfemur -51.2557 -40.428 43.5044
ltibia -3.05656
lfoot -28.4059 61.3991
ltoes 21.1025
497
root -0.695992 17.8903 7.54376 36.7916 14.0646 -14.0125
lowerback 27.1668 2.85696 4.49388
upperback 12.2592 4.45933 -3.12319
thorax -0.632049 2.48466 -7.17579
lowerneck -14.4332 -2.13078 -0.0363622
upperneck 1.81382 -3.15156 4.92786
head 3.24334 -1.35307 1.41167
rclavicle -1.35174e-014 -3.52843e-014
rhumerus 66.0723 18.2141 -21.4753
rradius 41.2943
rwrist -28.3907
rhand 7.59126 -32.152
rfingers 7.12502
rthumb 32.8383 -59.1862
lclavicle -1.35174e-014 -3.52843e-014
lhumerus 57.7854 -19.1592 -1.99749
lradius 51.2918
lwrist 80.9061
lhand -35.2062 -14.0244
lfingers 7.12502
lthumb -8.34378 15.7908
rfemur -39.8806 28.4451 15.1197
rtibia -1.2933
rfoot -10.6327 -37.2422
rtoes 17.9805
lfemur -50.3158 -40.676 42.9216
ltibia -3.28204
lfoot -28.4357 61.4262
ltoes 20.9824
498
root -0.70058 17.8916 7.5433 36.5611 13.7531 -14.1843
lowerback 27.1036 2.73397 4.61793
upperback 12.0668 4.31792 -3.42924
thorax -0.799681 2.42064 -7.55855
lowerneck -15.256 -2.06308 -0.795559
upperneck 3.213 -3.04409 5.76885
head 3.51339 -1.2202 1.67744
rclavicle -4.69132e-014 -2.26615e-014
rhumerus 66.0918 18.96 -21.9506
rradius 41.7384
rwrist -29.0251
rhand 7.5281 -32.1238
rfingers 7.12502
rthumb 32.7782 -59.1706
lclavicle -4.69132e-014 -2.26615e-014
lhumerus 57.1981 -19.5592 -2.01725
lradius 51.5018
lwrist 81.2438
lhand -34.7838 -14.1507
lfingers 7.12502
lthumb -7.93608 15.6804
rfemur -39.6745 28.7968 15.1769
rtibia -1.35198
rfoot -10.5689 -37.211
rtoes 17.8958
lfemur -49.6217 -40.7549 42.4792
ltibia -3.42779
lfoot -28.5285 61.4362
ltoes 20.9999
499
root -0.705161 17.8923 7.54362 36.2783 13.4452 -14.2993
lowerback 27.0417 2.69108 4.70208
upperback 11.874 4.27002 -3.66335
thorax -0.965072 2.39723 -7.86233
lowerneck -16.6954 -2.09532 -2.99038
upperneck 5.53513 -2.94845 7.79761
head 4.52579 -1.01974 2.66348
rclavicle 4.77083e-014 4.6118e-014
rhumerus 65.9269 19.7135 -22.1691
rradius 42.2292
rwrist -29.7489
rhand 7.4068 -32.0096
rfingers 7.12502
rthumb 32.6628 -59.0803
lclavicle 4.77083e-014 4.6118e-014
lhumerus 56.7811 -20.0144 -1.94302
lradius 51.763
lwrist 81.5989
lhand -34.5089 -14.4679
lfingers 7.12502
lthumb -7.67079 15.373
rfemur -39.3938 29.1168 15.2287
rtibia -1.38792
rfoot -10.6357 -37.1642
rtoes 18.177
lfemur -48.9605 -40.9222 41.9833
ltibia -3.49398
lfoot -28.8158 61.4069
ltoes 21.2112
500
root -0.710475 17.8926 7.54411 35.9668 13.1892 -14.2976
lowerback 26.9941 2.58889 4.77158
upperback 11.6949 4.14668 -3.89846
thorax -1.13659 2.3366 -8.14118
lowerneck -15.7318 -1.86315 -1.28101
upperneck 4.27811 -2.78802 6.39395
head 3.92572 -1.03478 1.96449
rclavicle -4.45278e-014 -8.15017e-015
rhumerus 65.9657 20.5376 -21.9918
rradius 42.647
rwrist -30.3448
rhand 7.28248 -31.932
rfingers 7.12502
rthumb 32.5445 -59.0272
lclavicle -4.45278e-014 -8.15017e-015
lhumerus 56.2181 -20.4924 -1.89188
lradius 52.127
lwrist 81.8368
lhand -34.1697 -14.6209
lfingers 7.12502
lthumb -7.34341 15.2317
rfemur -39.0477 29.3392 15.2609
rtibia -1.3924
rfoot -10.7759 -37.1504
rtoes 18.3409
lfemur -48.4881 -41.1659 41.5012
ltibia -3.41649
lfoot -29.1423 61.3564
ltoes 21.3374
501
root -0.716501 17.8938 7.54274 35.6593 13.0012 -14.2481
lowerback 26.9456 2.40055 4.87113
upperback 11.4439 3.91878 -4.2285
thorax -1.39734 2.22317 -8.52267
lowerneck -15.4607 -1.56969 -0.463027
upperneck 4.28215 -2.50974 5.91115
head 3.85523 -0.913113 1.70653
rclavicle -4.53229e-014 -5.36719e-015
rhumerus 66.1252 21.5246 -21.876
rradius 43.0172
rwrist -30.7954
rhand 7.13812 -31.9295
rfingers 7.12502
rthumb 32.4072 -59.053
lclavicle -4.53229e-014 -5.36719e-015
lhumerus 55.561 -21.1079 -2.26837
lradius 52.5379
lwrist 82.1095
lhand -33.8703 -14.6214
lfingers 7.12502
lthumb -7.05436 15.2411
rfemur -38.6845 29.4842 15.3075
rtibia -1.41405
rfoot -10.8398 -37.1879
rtoes 18.3002
lfemur -48.1691 -41.3989 41.1185
ltibia -3.31143
lfoot -29.0451 61.3794
ltoes 21.0483
502
root -0.722805 17.8953 7.54189 35.3062 12.8168 -14.2287
lowerback 26.8932 2.37216 5.03868
upperback 11.3881 3.91866 -4.27972
thorax -1.41579 2.22888 -8.67735
lowerneck -16.3535 -1.61886 -1.48052
upperneck 5.25882 -2.48368 6.51955
head 4.31926 -0.848216 2.05976
rclavicle 6.44062e-014 -5.02925e-014
rhumerus 66.1049 22.1048 -21.1755
rradius 43.5176
rwrist -31.3628
rhand 6.87499 -31.8937
rfingers 7.12502
rthumb 32.1567 -59.0681
lclavicle 6.44062e-014 -5.02925e-014
lhumerus 55.3451 -21.4542 -2.2297
lradius 52.7307
lwrist 82.4155
lhand -33.8291 -14.777
lfingers 7.12502
lthumb -7.01456 15.0867
rfemur -38.2587 29.6659 15.4257
rtibia -1.45673
rfoot -10.7659 -37.2737
rtoes 18.106
lfemur -47.7498 -41.6797 40.7285
ltibia -3.29373
lfoot -28.7891 61.4712
ltoes 20.658
503
root -0.730341 17.8953 7.54244 34.8971 12.6326 -14.2734
lowerback 26.8608 2.23923 5.18363
upperback 11.0707 3.77085 -4.56371
thorax -1.74759 2.14655 -9.06018
lowerneck -16.5895 -1.2868 -1.72226
upperneck 6.39603 -2.10566 7.08205
head 4.70593 -0.602169 2.31096
rclavicle -8.74653e-015 -4.4329e-014
rhumerus 66.0933 23.1837 -21.3466
rradius 43.9062
rwrist -31.8802
rhand 6.64501 -31.8196
rfingers 7.12502
rthumb 31.9377 -59.038
lclavicle -8.74653e-015 -4.4329e-014
lhumerus 54.8927 -22.2682 -2.82825
lradius 52.9831
lwrist 82.8376
lhand -33.8947 -14.807
lfingers 7.12502
lthumb -7.07792 15.0547
rfemur -37.7767 29.9098 15.6479
rtibia -1.47407
rfoot -10.614 -37.3608
rtoes 17.6444
lfemur -47.2284 -41.9698 40.326
ltibia -3.28482
lfoot -28.4444 61.6072
ltoes 20.1257
504
root -0.739148 17.8956 7.54211 34.4839 12.4627 -14.2967
lowerback 26.832 2.11259 5.2915
upperback 10.74 3.62096 -4.85443
thorax -2.10089 2.05889 -9.4309
lowerneck -16.2324 -0.922822 -0.825547
upperneck 6.48886 -1.77003 6.72086
head 4.6508 -0.440865 2.08181
rclavicle 2.22639e-014 -1.35174e-014
rhumerus 66.0782 24.2083 -21.7535
rradius 44.1043
rwrist -32.1905
rhand 6.53671 -31.8283
rfingers 7.12502
rthumb 31.8346 -59.0673
lclavicle 2.22639e-014 -1.35174e-014
lhumerus 54.3765 -23.0857 -3.38342
lradius 53.2928
lwrist 83.2561
lhand -33.8137 -14.6508
lfingers 7.12502
lthumb -6.9997 15.2134
rfemur -37.2914 30.1199 15.8583
rtibia -1.46191
rfoot -10.5572 -37.3806
rtoes 17.2853
lfemur -46.7651 -42.2581 39.9412
ltibia -3.23787
lfoot -27.9387 61.7654
ltoes 19.4163
505
root -0.744636 17.8952 7.54195 34.103 12.2599 -14.2513
lowerback 26.796 2.00123 5.31899
upperback 10.3026 3.46761 -5.16419
thorax -2.57869 1.95588 -9.78125
lowerneck -14.4178 -0.750117 1.51481
upperneck 4.68617 -1.72444 5.3051
head 3.76625 -0.524141 1.2637
rclavicle -2.70347e-014 -1.66979e-014
rhumerus 65.9809 25.3942 -22.4606
rradius 44.0533
rwrist -32.2776
rhand 6.3386 -31.8249
rfingers 7.12502
rthumb 31.6459 -59.1012
lclavicle -2.70347e-014 -1.66979e-014
lhumerus 53.7021 -24.1215 -3.83741
lradius 53.7355
lwrist 83.5168
lhand -33.6305 -14.6485
lfingers 7.12502
lthumb -6.82289 15.2215
rfemur -36.8257 30.2864 15.9414
rtibia -1.46542
rfoot -10.6287 -37.3451
rtoes 17.2657
lfemur -46.2915 -42.5828 39.4542
ltibia -3.21181
lfoot -27.6719 61.8434
ltoes 19.0503
506
root -0.746318 17.8915 7.53918 33.8712 12.0561 -14.2431
lowerback 26.5084 2.05303 5.31847
upperback 9.81707 3.51373 -5.30836
thorax -2.96679 1.94551 -9.96075
lowerneck -13.5556 -0.605637 1.96881
upperneck 4.48123 -1.5758 5.27005
head 3.95453 -0.467212 1.30369
rclavicle -6.20208e-014 -3.53837e-014
rhumerus 65.627 26.6599 -22.7414
rradius 44.0961
rwrist -32.1893
rhand 5.69773 -31.9124
rfingers 7.12502
rthumb 31.0353 -59.3072
lclavicle -6.20208e-014 -3.53837e-014
lhumerus 53.2905 -25.3088 -3.98238
lradius 54.0971
lwrist 83.6603
lhand -33.5167 -14.8482
lfingers 7.12502
lthumb -6.71306 15.0254
rfemur -36.6103 30.4131 15.9183
rtibia -1.41536
rfoot -10.6939 -37.2873
rtoes 17.1506
lfemur -45.9852 -42.7025 39.0978
ltibia -3.11551
lfoot -27.4935 61.8652
ltoes 18.8403
507
root -0.750421 17.89 7.53031 33.7865 11.8813 -14.2052
lowerback 26.0982 2.09664 5.38384
upperback 9.39449 3.56756 -5.37971
thorax -3.22232 1.94676 -10.0847
lowerneck -13.487 -0.509123 1.95125
upperneck 5.48853 -1.51567 5.63866
head 3.86204 -0.384807 1.31233
rclavicle -1.59028e-014 2.26615e-014
rhumerus 65.5109 27.9167 -22.0852
rradius 44.49
rwrist -31.7027
rhand 4.44627 -32.4121
rfingers 7.12502
rthumb 29.8417 -60.0279
lclavicle -1.59028e-014 2.26615e-014
lhumerus 52.9665 -26.3417 -3.89491
lradius 54.2905
lwrist 83.8596
lhand -33.5381 -14.9247
lfingers 7.12502
lthumb -6.73365 14.9482
rfemur -36.6472 30.4683 15.7785
rtibia -1.29788
rfoot -10.7145 -37.2456
rtoes 16.9226
lfemur -46.0241 -42.5804 38.9504
ltibia -2.85415
lfoot -26.8446 61.9441
ltoes 18.082
508
root -0.758879 17.8919 7.52389 33.6312 11.6847 -14.11
lowerback 25.8376 2.17586 5.3852
upperback 8.99905 3.65556 -5.4365
thorax -3.51629 1.96154 -10.1737
lowerneck -13.0152 -0.500211 2.75784
upperneck 5.17644 -1.58252 5.27187
head 4.08818 -0.441668 1.16645
rclavicle 3.02153e-014 1.05356e-013
rhumerus 65.0211 28.6635 -22.4432
rradius 44.8476
rwrist -33.0375
rhand 5.00785 -32.8357
rfingers 7.12502
rthumb 30.3775 -60.354
lclavicle 3.02153e-014 1.05356e-013
lhumerus 52.7288 -27.2969 -3.749
lradius 54.4065
lwrist 84.0751
lhand -33.4923 -14.6493
lfingers 7.12502
lthumb -6.68948 15.225
rfemur -36.5318 30.5629 15.6829
rtibia -1.22928
rfoot -10.7213 -37.2298
rtoes 16.9043
lfemur -45.9499 -42.563 38.6891
ltibia -2.64256
lfoot -26.1765 62.0364
ltoes 17.2833
509
root -0.766876 17.8941 7.52365 33.3023 11.4845 -14.0568
lowerback 25.6165 2.19751 5.25062
upperback 8.81676 3.65707 -5.2666
thorax -3.63923 1.94354 -9.8896
lowerneck -14.0479 -0.453261 1.52134
upperneck 6.72282 -1.48377 5.93763
head 4.33842 -0.318291 1.4795
rclavicle -9.54166e-015 7.55382e-014
rhumerus 65.3664 29.4875 -21.5465
rradius 45.1163
rwrist -33.3095
rhand 4.89981 -32.741
rfingers 7.12502
rthumb 30.2744 -60.2783
lclavicle -9.54166e-015 7.55382e-014
lhumerus 51.9017 -27.9796 -2.99031
lradius 54.5223
lwrist 84.2656
lhand -33.3297 -14.3552
lfingers 7.12502
lthumb -6.5325 15.5241
rfemur -36.149 30.7385 15.7675
rtibia -1.19539
rfoot -10.7611 -37.245
rtoes 16.8179
lfemur -45.5398 -42.7801 38.266
ltibia -2.58994
lfoot -26.0528 62.0626
ltoes 17.0425
